<?xml version="1.0" encoding="utf-8"?>
<!-- Generator: Adobe Illustrator 22.1.0, SVG Export Plug-In . SVG Version: 6.00 Build 0)  -->
<svg version="1.1" id="Layer_1" xmlns="http://www.w3.org/2000/svg" xmlns:xlink="http://www.w3.org/1999/xlink" x="0px" y="0px"
	 viewBox="0 0 297 141.3" style="enable-background:new 0 0 297 141.3;" xml:space="preserve">
<style type="text/css">
	.st0{fill:#A9E021;}
	.st1{fill:#CCCCCC;}
	.st2{fill:#999999;}
</style>
<title>Artboard 5</title>
<g>
	<g>
		<path class="st0" d="M12.2,100c0-8.5,6.5-13.8,14.4-13.8c5.9,0,9.5,3.2,11.4,6.5l-5.7,3c-1-1.8-3-3.4-5.6-3.4
			c-4.3,0-7.4,3.4-7.4,7.7c0,4.3,3.1,7.7,7.4,7.7c2,0,3.9-0.8,4.9-1.6V104h-6v-6h12.8v10.6c-2.9,3.2-6.7,5.2-11.8,5.2
			C18.7,113.8,12.2,108.5,12.2,100z"/>
		<path class="st0" d="M57.2,113.3l-4.5-8.9h-3.5v8.9h-6.9V86.7h13.3c5.9,0,9.3,3.9,9.3,8.9c0,4.6-2.8,7.1-5.3,8l5.4,9.8L57.2,113.3
			L57.2,113.3z M58,95.5c0-1.8-1.5-2.8-3.3-2.8h-5.4v5.7h5.4C56.5,98.4,58,97.4,58,95.5z"/>
		<path class="st0" d="M68.8,113.3V86.7h19.5v6H75.7v4.1H88v6H75.6v4.5h12.6v6C88.2,113.3,68.8,113.3,68.8,113.3z"/>
		<path class="st0" d="M92.3,113.3V86.7h19.5v6H99.2v4.1h12.4v6H99.2v4.5h12.6v6C111.8,113.3,92.3,113.3,92.3,113.3z"/>
		<path class="st0" d="M133.8,113.3l-11.2-15.4v15.4h-6.9V86.7h7.1l10.8,14.6V86.7h6.9v26.6C140.5,113.3,133.8,113.3,133.8,113.3z"
			/>
		<path class="st1" d="M145.2,113.3V86.7h6.9v26.6C152.1,113.3,145.2,113.3,145.2,113.3z"/>
		<path class="st1" d="M155,109.5l3.6-5.1c1.9,1.9,4.9,3.5,8.5,3.5c2.4,0,3.8-0.9,3.8-2.2c0-3.6-15.1-0.7-15.1-11
			c0-4.5,3.8-8.5,10.6-8.5c4.3,0,8,1.3,10.8,3.7l-3.7,4.9c-2.2-1.8-5.1-2.8-7.8-2.8c-2,0-2.9,0.8-2.9,1.9c0,3.4,15,0.9,15,10.8
			c0,5.3-3.9,8.9-11.1,8.9C161.4,113.8,157.6,112.1,155,109.5z"/>
		<path class="st1" d="M181,113.3V86.7h6.9v20.6h10.7v6C198.6,113.3,181,113.3,181,113.3z"/>
		<path class="st1" d="M220.2,113.3l-1.3-3.8h-10.5l-1.3,3.8h-7.8l10-26.6h8.6l10,26.6H220.2z M213.6,93.5l-3.4,10h6.8L213.6,93.5z"
			/>
		<path class="st1" d="M248,113.3l-11.2-15.4v15.4h-6.9V86.7h7.1l10.8,14.6V86.7h6.9v26.6C254.7,113.3,248,113.3,248,113.3z"/>
		<path class="st1" d="M259.4,113.3V86.7h11.2c8.4,0,14.4,5,14.4,13.3s-6,13.3-14.4,13.3H259.4z M278,100c0-4.1-2.5-7.3-7.3-7.3
			h-4.3v14.6h4.3C275.3,107.3,278,103.9,278,100z"/>
	</g>
	<g>
		<path class="st2" d="M15.5,134.8c0-3.1,2.4-5.2,5.4-5.2c2.2,0,3.5,1.2,4.2,2.5l-1.9,0.9c-0.4-0.8-1.3-1.5-2.4-1.5
			c-1.8,0-3.2,1.4-3.2,3.3s1.3,3.3,3.2,3.3c1,0,2-0.6,2.4-1.5l1.9,0.9c-0.7,1.3-2,2.5-4.2,2.5C17.9,140.1,15.5,137.9,15.5,134.8z"/>
		<path class="st2" d="M45.2,134.8c0-3.1,2.2-5.2,5.3-5.2c3.1,0,5.3,2.2,5.3,5.2s-2.2,5.2-5.3,5.2C47.5,140.1,45.2,137.9,45.2,134.8
			z M53.6,134.8c0-1.9-1.2-3.3-3.1-3.3s-3.1,1.4-3.1,3.3c0,1.9,1.2,3.3,3.1,3.3S53.6,136.7,53.6,134.8z"/>
		<path class="st2" d="M83.6,139.9l-4.8-6.6v6.6h-2.2v-10.1h2.2l4.7,6.4v-6.4h2.2v10.1H83.6z"/>
		<path class="st2" d="M106.3,138.4l1.2-1.6c0.7,0.7,1.8,1.4,3.2,1.4c1.2,0,1.8-0.5,1.8-1.1c0-1.8-5.8-0.6-5.8-4.4
			c0-1.7,1.5-3.1,3.8-3.1c1.6,0,2.9,0.5,4,1.4l-1.2,1.6c-0.8-0.8-1.9-1.1-2.9-1.1c-0.9,0-1.4,0.4-1.4,1c0,1.6,5.8,0.5,5.8,4.3
			c0,1.9-1.3,3.3-4.1,3.3C108.6,140.1,107.2,139.4,106.3,138.4z"/>
		<path class="st2" d="M135.3,135.8v-6.1h2.2v6c0,1.4,0.8,2.4,2.4,2.4s2.4-1,2.4-2.4v-6h2.2v6.1c0,2.5-1.5,4.2-4.6,4.2
			S135.3,138.3,135.3,135.8z"/>
		<path class="st2" d="M165.7,139.9v-10.1h2.2v8.2h4.3v1.9L165.7,139.9L165.7,139.9z"/>
		<path class="st2" d="M193.8,139.9v-8.2h-3v-1.9h8.1v1.9H196v8.2H193.8z"/>
		<path class="st2" d="M219.6,139.9v-10.1h2.2v10.1H219.6z"/>
		<path class="st2" d="M250,139.9l-4.8-6.6v6.6H243v-10.1h2.2l4.7,6.4v-6.4h2.2v10.1H250z"/>
		<path class="st2" d="M272.9,134.8c0-3.2,2.4-5.2,5.4-5.2c2.1,0,3.4,1.1,4.2,2.3l-1.8,1c-0.5-0.7-1.3-1.3-2.4-1.3
			c-1.8,0-3.2,1.4-3.2,3.3s1.3,3.3,3.2,3.3c0.9,0,1.7-0.4,2.2-0.8v-1.2h-2.7v-1.9h4.8v3.9c-1,1.2-2.5,1.9-4.3,1.9
			C275.3,140.1,272.9,138,272.9,134.8z"/>
	</g>
	<g>
		<polygon class="st0" points="131.5,10.8 161.4,10.8 170.9,1.3 122,1.3 122,50.1 131.5,40.6 		"/>
		<polygon class="st1" points="175.2,5 165.7,14.5 165.7,44.9 135.2,44.9 125.7,54.4 175.2,54.4 		"/>
	</g>
</g>
</svg>
